<svg id="Layer_1" data-name="Layer 1" xmlns="http://www.w3.org/2000/svg" viewBox="0 0 555.53 359.32"><defs><style>.cls-1{fill:#0071bc;}.cls-2{fill:#fff;}.cls-2,.cls-3,.cls-5{stroke:#000;stroke-miterlimit:10;stroke-width:7px;}.cls-3{fill:#ff0;}.cls-4{fill:#333;}.cls-5{fill:gray;}</style></defs><title>Artboard 1</title><path class="cls-1" d="M391.14,252.5c-5.05,0-10.47-4.31-11.84-9.41l-43.94-164a6.3,6.3,0,0,1,.76-5.58,5.63,5.63,0,0,1,4.64-2H479.52c5.05,0,10.47,4.31,11.83,9.41l43.95,164a6.3,6.3,0,0,1-.76,5.58,5.63,5.63,0,0,1-4.65,2Z"/><path d="M479.52,75c3.41,0,7.52,3.31,8.45,6.81l43.95,164a3.11,3.11,0,0,1-.16,2.55,2.43,2.43,0,0,1-1.87.64H391.14c-3.41,0-7.52-3.31-8.46-6.81l-43.94-164a3.11,3.11,0,0,1,.16-2.55,2.41,2.41,0,0,1,1.86-.64H479.52m0-7H340.76c-6.6,0-10.55,5.4-8.78,12l43.94,164c1.77,6.6,8.62,12,15.22,12H529.89c6.61,0,10.56-5.4,8.79-12L494.74,80c-1.77-6.6-8.62-12-15.22-12Z"/><rect class="cls-1" x="25.03" y="26.5" width="349" height="226"/><path d="M370.53,30V249h-342V30h342m7-7h-356V256h356V23Z"/><polygon class="cls-2" points="391.03 89.5 473.03 89.5 491.03 150.5 391.03 150.5 391.03 89.5"/><polygon class="cls-3" points="145.03 59.27 186.88 44.5 186.88 71.58 211.51 66.66 211.51 115.9 225.05 109.75 225.05 207 200.43 146.68 185.65 146.68 174.57 104.82 149.95 109.75 145.03 59.27"/><rect x="25.03" y="259.5" width="466" height="33"/><path d="M487.53,263v26h-459V263h459m7-7h-473v40h473V256Z"/><circle class="cls-4" cx="90.03" cy="293.5" r="39"/><path d="M90,258a35.5,35.5,0,1,1-35.5,35.5A35.55,35.55,0,0,1,90,258m0-7a42.5,42.5,0,1,0,42.5,42.5A42.5,42.5,0,0,0,90,251Z"/><circle class="cls-5" cx="90.03" cy="293.5" r="20"/><circle class="cls-4" cx="461.03" cy="294.5" r="39"/><path d="M461,259a35.5,35.5,0,1,1-35.5,35.5A35.55,35.55,0,0,1,461,259m0-7a42.5,42.5,0,1,0,42.5,42.5A42.5,42.5,0,0,0,461,252Z"/><circle class="cls-5" cx="461.03" cy="294.5" r="20"/></svg>